<?xml version="1.0" standalone="no"?>
<!DOCTYPE svg PUBLIC "-//W3C//DTD SVG 20010904//EN"
 "http://www.w3.org/TR/2001/REC-SVG-20010904/DTD/svg10.dtd">
<svg version="1.0" xmlns="http://www.w3.org/2000/svg"
 width="500.000000pt" height="500.000000pt" viewBox="0 0 500.000000 500.000000"
 preserveAspectRatio="xMidYMid meet">
<metadata>
Created by potrace 1.14, written by Peter Selinger 2001-2017
</metadata>
<g transform="translate(0.000000,500.000000) scale(0.100000,-0.100000)"
fill="#000000" stroke="none">
<path d="M2258 4773 c7 -3 16 -2 19 1 4 3 -2 6 -13 5 -11 0 -14 -3 -6 -6z"/>
<path d="M2280 4749 c-52 -11 -124 -22 -159 -25 -35 -2 -68 -7 -72 -10 -5 -3
-9 -1 -9 5 0 21 -28 -1 -50 -41 -29 -52 -60 -84 -60 -63 0 8 -7 15 -15 15 -14
0 -14 4 1 33 l17 32 -28 -25 c-15 -14 -40 -52 -56 -84 -32 -67 -57 -80 -66
-35 -3 16 -10 32 -16 36 -6 4 -8 -3 -4 -19 5 -18 2 -28 -8 -32 -8 -3 -17 -1
-20 4 -11 18 -40 2 -46 -27 -9 -47 -18 -56 -37 -41 -13 11 -15 9 -9 -17 8 -43
-2 -85 -19 -78 -9 3 -14 -2 -14 -16 0 -15 -7 -21 -22 -22 -22 0 -22 -1 -3 -8
19 -8 18 -9 -4 -12 -14 -2 -26 -10 -29 -18 -3 -9 0 -11 8 -6 9 5 10 2 5 -14
-4 -13 -1 -29 7 -39 12 -16 11 -16 -6 -2 -18 14 -19 13 -13 -2 4 -12 2 -18 -8
-18 -9 0 -15 -10 -15 -22 -1 -20 -8 -129 -12 -165 -1 -7 -8 -13 -15 -13 -8 0
-12 -4 -9 -9 4 -5 2 -11 -4 -13 -5 -1 -11 -15 -12 -30 -2 -22 -5 -25 -17 -15
-12 10 -14 9 -8 -5 7 -20 -9 -25 -16 -5 -3 7 -6 5 -6 -5 -1 -10 -5 -18 -11
-18 -16 0 1 -30 19 -31 10 0 12 -2 3 -6 -7 -3 -19 1 -28 7 -12 11 -13 10 -8
-4 4 -9 3 -16 -2 -15 -5 1 -16 1 -24 0 -25 -2 10 -21 40 -21 19 0 22 -2 11 -9
-9 -6 -22 -6 -32 0 -20 10 -69 -4 -51 -15 17 -10 15 -36 -4 -36 -9 0 -12 -5
-8 -12 5 -8 2 -9 -9 -5 -10 3 -17 2 -17 -3 0 -5 8 -11 18 -13 15 -4 15 -5 1
-6 -18 -1 -35 -31 -19 -31 6 0 6 -10 0 -26 -13 -32 -13 -43 0 -24 5 8 10 10
10 4 0 -6 -7 -17 -15 -24 -12 -10 -14 -24 -10 -54 4 -23 10 -45 15 -49 4 -5 4
-24 -1 -42 -9 -33 -4 -100 23 -288 7 -49 16 -86 19 -82 4 3 5 -8 3 -25 -2 -17
2 -48 10 -70 11 -33 11 -40 0 -40 -21 0 -25 -16 -11 -43 11 -21 13 -44 8 -105
-1 -8 -6 -12 -13 -10 -19 7 -20 168 -1 168 9 0 11 5 6 13 -4 6 -8 18 -10 26
-1 8 -8 18 -15 22 -9 6 -15 -2 -21 -29 -10 -43 -2 -205 10 -209 4 -2 8 -25 8
-52 -1 -50 14 -62 16 -13 0 25 16 74 19 62 8 -25 4 -82 -7 -111 -14 -36 -13
-94 1 -117 5 -8 2 -10 -8 -6 -9 3 -17 1 -17 -5 -1 -6 -2 -17 -3 -23 -4 -25 16
-68 31 -68 11 0 14 7 9 26 -10 39 2 64 30 64 24 0 32 14 14 25 -5 3 -10 11
-10 18 0 6 11 -5 25 -26 14 -20 27 -37 28 -37 1 0 2 64 2 143 0 78 3 154 8
170 7 26 10 27 58 23 32 -2 57 -10 67 -21 13 -14 13 -16 2 -10 -12 7 -12 5 1
-11 21 -24 36 -69 20 -60 -7 5 -8 1 -4 -11 12 -32 45 -70 70 -82 14 -6 21 -16
17 -22 -4 -7 -1 -10 7 -7 8 3 22 1 32 -4 11 -5 17 -5 17 2 0 5 5 10 11 10 5 0
8 -4 4 -9 -9 -15 16 -24 28 -11 9 10 9 11 0 6 -7 -4 -13 -2 -13 3 0 15 13 14
29 -1 11 -10 13 -10 7 0 -5 7 -1 12 11 13 10 0 28 2 41 5 14 2 21 0 17 -6 -3
-6 1 -7 9 -4 9 3 14 10 11 14 -3 5 7 7 22 5 15 -1 37 4 50 12 12 8 27 12 33 8
5 -3 10 -2 10 3 0 5 10 14 23 20 19 10 18 10 -13 6 -33 -4 -34 -4 -10 7 14 7
30 11 35 10 6 -2 23 -4 38 -5 34 -3 49 -23 36 -47 -7 -14 -4 -19 10 -24 19 -6
19 -8 4 -43 -9 -20 -18 -59 -20 -87 -3 -27 -11 -61 -19 -75 -8 -14 -23 -47
-34 -73 -11 -27 -24 -46 -28 -43 -5 3 -20 -6 -32 -19 -13 -14 -20 -25 -16 -25
4 0 0 -7 -8 -16 -9 -8 -14 -20 -11 -24 8 -12 -33 -33 -47 -24 -6 4 -9 1 -6 -7
6 -17 -15 -39 -39 -40 -16 0 -16 -1 2 -9 16 -7 11 -9 -21 -9 -34 -1 -43 -5
-47 -22 -3 -12 -10 -18 -15 -15 -6 3 -13 -1 -16 -10 -4 -10 -13 -13 -26 -9
-13 4 -20 2 -20 -7 0 -10 -2 -10 -9 1 -8 12 -12 13 -25 1 -14 -11 -16 -10 -10
5 7 16 5 16 -14 -1 -24 -20 -29 -30 -10 -18 8 5 9 2 5 -10 -4 -10 -7 -22 -7
-27 0 -6 -4 -8 -9 -4 -6 3 -15 -3 -21 -14 -9 -19 -8 -20 27 -16 30 4 34 2 21
-6 -10 -5 -18 -16 -18 -24 0 -8 -4 -16 -9 -20 -6 -3 -8 5 -5 19 3 19 1 23 -14
19 -14 -3 -18 -13 -16 -39 2 -18 8 -43 14 -54 6 -11 8 -20 4 -20 -3 0 -1 -6 5
-14 9 -11 7 -15 -9 -19 -13 -3 -18 -10 -14 -21 3 -9 11 -16 17 -16 5 0 2 -9
-8 -21 -19 -20 -19 -20 7 -10 23 9 25 8 20 -11 -3 -12 -1 -19 4 -15 5 3 10 -3
10 -13 0 -17 -2 -18 -16 -5 -9 8 -20 15 -25 15 -5 0 -1 -6 10 -13 12 -10 16
-22 13 -41 -4 -20 -2 -26 9 -22 11 4 11 1 3 -14 -9 -16 -7 -20 7 -21 11 0 13
-3 5 -6 -10 -4 -10 -8 0 -20 6 -8 13 -23 15 -33 1 -10 14 -36 29 -57 33 -48
76 -133 68 -133 -3 0 1 -12 11 -26 9 -14 15 -37 12 -50 -2 -13 -1 -24 3 -24 4
0 7 -6 8 -12 0 -7 7 -38 15 -69 8 -30 14 -74 13 -97 0 -23 4 -44 9 -46 6 -3 4
-5 -2 -5 -15 -1 -17 -37 -4 -46 6 -3 6 -17 -1 -36 -8 -24 -8 -33 2 -39 8 -5 9
-10 1 -14 -6 -4 -9 -27 -8 -50 2 -33 -2 -47 -15 -55 -13 -8 -16 -17 -10 -29
11 -25 9 -55 -6 -60 -11 -3 -16 18 -14 53 1 6 -10 18 -23 28 -14 10 -25 13
-25 7 0 -5 -5 -10 -11 -10 -5 0 -7 5 -4 10 3 6 2 10 -4 10 -5 0 -11 -5 -13
-11 -2 -5 -11 -11 -20 -13 -34 -4 -29 -15 11 -27 23 -7 46 -18 53 -26 8 -10 8
-12 -4 -8 -8 3 -21 -1 -28 -10 -15 -18 -2 -31 55 -59 28 -13 162 -109 175
-124 3 -3 -13 5 -35 18 -22 13 -41 28 -43 32 -2 4 -17 8 -33 8 -18 0 -29 5
-29 14 0 8 -22 22 -52 32 -29 9 -74 28 -99 41 -26 12 -50 23 -54 23 -3 0 -27
10 -53 22 -26 12 -54 21 -62 19 -8 -2 -12 0 -8 5 12 12 -35 31 -91 37 -49 5
-51 4 -51 -19 0 -14 12 -35 30 -51 18 -16 26 -29 20 -33 -13 -8 -24 -55 -22
-97 2 -27 -3 -35 -28 -48 -16 -8 -33 -23 -39 -32 -9 -17 -10 -17 -16 -1 -5 12
-16 15 -48 12 -74 -8 -89 -13 -109 -30 -12 -12 -34 -17 -62 -17 l-43 1 8 -36
c5 -21 9 -40 9 -44 0 -5 10 -8 23 -8 17 0 19 -2 7 -10 -16 -10 -9 -21 18 -29
30 -8 116 -6 136 3 18 9 18 8 2 -16 l-16 -25 91 -6 c51 -4 115 -7 143 -8 81
-1 26 -16 -84 -22 -135 -9 -215 -17 -290 -29 -36 -6 -91 -12 -122 -12 -43 -1
-64 -7 -89 -25 -17 -13 -29 -19 -25 -12 11 17 -20 24 -56 12 -18 -6 -37 -11
-43 -12 -5 -1 -27 -10 -47 -20 -21 -10 -49 -19 -62 -19 -45 0 -116 -23 -116
-38 0 -8 -9 -16 -20 -19 -11 -3 -20 -9 -20 -13 0 -5 -16 -14 -35 -20 -19 -6
-33 -16 -30 -20 3 -5 -3 -14 -14 -20 -27 -14 -41 -42 -34 -68 l5 -22 2185 0
2184 0 -22 23 c-15 15 -23 18 -26 10 -3 -7 -9 -13 -15 -13 -6 0 -8 7 -4 15 3
9 0 15 -9 15 -8 0 -18 6 -22 13 -4 7 -26 21 -48 32 -46 21 -101 64 -97 77 1 5
-11 11 -28 14 -16 4 -36 17 -45 31 -11 17 -22 22 -36 18 -11 -4 -19 -2 -19 6
0 29 -64 51 -86 29 -8 -8 -15 -6 -24 5 -7 8 -18 15 -25 15 -8 0 -15 4 -17 9
-1 6 -30 12 -63 15 -33 2 -81 13 -107 24 -25 11 -48 19 -50 16 -2 -2 -19 1
-37 6 -18 5 -65 10 -103 12 -38 1 -72 6 -74 10 -9 13 139 9 252 -8 58 -8 108
-13 112 -10 3 3 -2 7 -11 7 -19 2 -26 3 -47 12 -8 3 -28 8 -45 11 -40 8 -42 9
-105 39 -50 24 -129 45 -234 62 -68 11 -19 25 72 20 60 -4 94 0 125 11 23 9
54 18 70 21 15 3 27 12 27 20 0 27 72 9 141 -35 35 -23 65 -39 67 -37 9 9 -42
86 -83 124 -40 36 -148 96 -195 106 -100 23 -166 35 -188 35 -15 0 -44 6 -64
13 -28 10 -52 11 -98 3 -44 -7 -63 -7 -68 1 -4 7 -24 10 -47 8 -126 -12 -415
-17 -415 -7 0 7 23 9 64 8 36 -2 86 0 113 4 110 18 273 35 296 31 10 -1 33 3
52 9 31 10 39 9 67 -12 28 -19 44 -22 107 -21 44 1 77 7 81 14 5 7 19 9 39 4
17 -4 31 -4 31 0 0 3 -25 31 -55 60 -47 47 -58 53 -78 46 -24 -9 -55 -41 -41
-41 5 0 2 -6 -7 -13 -8 -7 -18 -20 -22 -29 -4 -11 -12 -15 -22 -12 -21 9 -19
19 9 34 27 14 39 43 25 57 -11 11 55 42 84 41 18 -1 53 -38 128 -136 23 -29
44 -51 46 -48 3 2 -13 42 -34 88 -29 60 -51 93 -80 116 -22 17 -46 45 -53 61
-7 17 -22 32 -36 35 -13 4 -24 13 -24 21 0 8 -4 15 -10 15 -5 0 -10 -7 -10
-15 0 -12 -3 -12 -20 2 -14 13 -16 19 -7 25 20 13 36 9 59 -14 27 -27 49 -32
41 -10 -14 35 16 -1 38 -45 28 -60 37 -36 12 33 -22 57 -68 93 -122 95 -20 1
-54 2 -76 3 -28 1 -39 -3 -37 -12 3 -15 -64 -46 -85 -38 -8 3 -11 1 -8 -4 3
-6 -1 -10 -9 -10 -9 0 -16 -5 -16 -10 0 -10 -39 -29 -70 -34 -8 -2 -15 -9 -15
-17 0 -7 -9 -15 -20 -17 -11 -2 -29 -12 -40 -22 -11 -9 -33 -20 -49 -24 -21
-5 -26 -10 -18 -18 8 -8 26 -4 64 15 127 62 175 81 206 81 17 0 32 3 32 6 0 4
7 7 15 7 8 0 15 -4 15 -9 0 -4 -7 -8 -15 -8 -8 0 -15 -4 -15 -10 0 -5 -9 -10
-20 -10 -11 0 -20 -4 -20 -8 0 -12 -65 -33 -83 -26 -8 3 -18 1 -22 -5 -3 -6
-1 -11 5 -11 6 0 8 -5 4 -11 -4 -7 -21 -9 -41 -6 -29 5 -36 3 -40 -12 -5 -19
-41 -31 -89 -31 -17 0 -22 -4 -18 -15 5 -11 2 -13 -11 -9 -9 4 -27 1 -39 -6
-13 -6 -32 -10 -42 -7 -15 3 -10 8 21 22 22 11 42 19 45 20 3 0 14 6 25 12 15
9 16 12 5 13 -9 0 -45 -16 -80 -35 -36 -19 -72 -35 -80 -35 -8 0 -33 -9 -55
-20 -22 -10 -43 -16 -47 -14 -5 3 -8 1 -8 -4 0 -4 -18 -18 -40 -30 -26 -14
-40 -17 -40 -9 0 7 -4 6 -10 -3 -5 -8 -10 -10 -10 -5 0 6 -8 11 -19 11 -10 0
-17 -5 -14 -12 6 -16 -27 -27 -43 -13 -15 12 -58 -6 -49 -20 7 -12 -20 -21
-68 -22 -32 0 -37 -2 -22 -8 16 -7 9 -10 -30 -16 -27 -4 -56 -13 -64 -19 -11
-8 -13 -8 -7 2 4 6 2 12 -3 12 -6 0 -11 -4 -11 -10 0 -5 -7 -6 -17 -3 -11 4
-14 3 -9 -5 7 -11 3 -13 -36 -16 -7 -1 -12 4 -11 11 2 7 -4 10 -12 6 -12 -4
-13 -9 -4 -19 9 -12 5 -14 -25 -14 -28 0 -36 4 -36 18 0 13 2 14 9 3 5 -8 11
-9 15 -3 8 13 -10 25 -25 17 -16 -11 -59 -13 -59 -4 0 11 -31 -1 -48 -18 -14
-14 -30 -17 -72 -13 -30 2 -22 -9 10 -15 43 -8 33 -14 -16 -9 -49 5 -73 14
-38 14 16 0 15 2 -6 13 -16 8 -25 21 -24 35 1 28 -4 28 -16 0 -6 -17 -9 -18
-9 -6 -1 9 6 23 14 31 11 12 12 17 2 21 -6 3 16 3 51 -1 36 -3 62 -2 62 4 0 5
16 7 36 5 27 -3 40 1 55 17 23 24 49 30 29 6 -10 -13 -9 -15 9 -15 23 0 88 36
83 46 -7 13 54 44 86 44 17 0 32 4 32 10 0 10 55 8 66 -2 3 -3 20 -2 39 2 19
4 35 4 37 -1 2 -5 15 4 30 21 14 16 22 30 16 30 -5 0 1 13 14 29 13 16 31 27
41 25 9 -1 18 4 18 12 3 28 4 32 13 41 5 5 6 3 2 -4 -4 -7 -2 -13 3 -13 10 0
15 13 13 31 -1 4 7 5 16 2 10 -2 29 5 43 16 21 18 21 20 4 15 -20 -5 -20 -5
-1 10 10 8 22 13 26 11 7 -4 20 16 24 35 4 17 19 28 30 24 8 -3 17 -1 21 5 3
6 1 11 -4 11 -17 0 -7 38 15 56 10 8 12 13 4 9 -10 -4 -9 -2 3 8 21 18 22 27
2 27 -12 0 -13 4 -6 18 12 23 3 64 -12 55 -6 -4 -1 7 10 23 16 22 22 50 26
109 3 44 11 96 17 115 7 19 13 42 14 52 1 9 9 24 17 34 12 16 12 17 -1 9 -12
-6 -13 -5 -2 6 14 16 16 33 2 24 -6 -3 -7 1 -4 9 3 9 10 14 14 11 5 -3 11 -1
15 5 3 5 1 10 -6 10 -8 0 -8 4 1 15 11 13 10 14 -5 9 -13 -5 -16 -4 -11 4 4 7
0 13 -11 14 -10 0 -22 2 -28 3 -5 2 -15 3 -22 4 -6 0 -10 14 -9 31 1 18 -2 29
-8 26 -6 -2 -10 -9 -8 -15 1 -7 -2 -10 -8 -6 -5 3 -10 1 -10 -4 0 -6 7 -11 16
-11 8 0 12 -5 9 -10 -4 -6 4 -20 17 -31 l23 -20 -31 15 c-34 16 -41 29 -50 83
-4 24 -2 33 8 31 9 -2 13 8 12 29 0 17 3 30 7 27 4 -2 12 3 18 10 8 10 9 16 1
21 -5 3 -10 3 -10 -2 0 -4 -5 -1 -10 7 -10 16 -11 12 -14 -42 -1 -10 -6 -18
-11 -17 -6 0 -9 8 -7 18 2 13 -5 21 -22 25 -13 3 -32 9 -42 13 -12 4 -15 3
-10 -5 4 -7 16 -12 27 -12 10 0 19 -5 19 -11 0 -5 -4 -8 -9 -5 -5 3 -11 -1
-14 -8 -3 -8 -1 -16 6 -19 6 -2 1 -6 -12 -10 -19 -5 -22 -2 -18 13 3 13 0 17
-9 13 -8 -3 -11 -10 -7 -17 3 -6 2 -7 -3 -3 -5 5 -9 14 -9 20 0 6 -15 14 -32
18 -31 6 -32 5 -27 -17 4 -14 2 -24 -5 -24 -6 0 -8 7 -5 15 4 8 1 15 -5 15
-20 0 -12 20 12 30 13 5 16 9 7 10 -38 4 -54 10 -78 32 l-25 23 6 -22 c4 -19
1 -23 -20 -23 -13 0 -21 4 -18 10 4 6 -7 10 -27 9 -18 0 -49 1 -68 3 -30 3
-35 0 -38 -19 -3 -19 -6 -21 -27 -11 -14 6 -22 15 -19 19 5 8 -9 13 -28 11
-11 -2 -16 24 -7 39 7 11 9 11 9 -3 0 -10 5 -19 10 -19 20 -3 25 -4 37 -12 9
-6 11 -3 7 8 -4 8 -14 14 -22 13 -9 -2 -17 4 -17 12 0 8 -12 17 -29 20 l-29 5
30 30 c42 42 109 148 96 152 -5 2 -8 14 -6 27 3 13 -2 30 -12 39 -12 13 -13
17 -3 17 8 1 4 8 -9 19 -12 10 -19 22 -15 26 4 5 1 5 -6 1 -7 -4 -10 -11 -7
-15 2 -5 -7 -6 -20 -3 l-25 4 30 -58 c34 -67 38 -109 13 -123 -10 -5 -44 -7
-75 -5 -38 2 -76 -3 -112 -16 -30 -10 -69 -16 -87 -14 -19 3 -47 7 -64 8 -16
2 -35 4 -40 5 -6 0 -17 17 -23 36 -9 23 -18 32 -27 28 -8 -3 -15 0 -15 7 0 6
-4 8 -10 5 -5 -3 -7 0 -4 8 3 8 1 18 -5 22 -6 3 -11 1 -11 -4 0 -6 -4 -11 -10
-11 -23 0 -7 52 32 101 39 50 93 139 83 139 -2 0 2 11 9 25 7 14 11 41 9 60
-3 27 0 35 12 35 10 0 15 7 13 18 -2 12 3 16 16 14 17 -3 18 -2 7 12 -11 13
-11 16 0 16 9 0 10 3 2 11 -8 8 -7 20 3 44 7 18 11 35 8 38 -9 9 25 66 47 78
53 28 139 -22 139 -80 0 -15 6 -49 14 -74 8 -26 11 -47 8 -47 -4 0 3 -7 15
-15 13 -9 20 -22 17 -30 -4 -9 0 -15 7 -15 7 0 24 -10 38 -22 14 -13 20 -16
13 -6 -22 29 -32 77 -21 106 6 15 11 45 11 67 -1 27 2 35 8 25 8 -12 10 -12
15 1 9 24 54 13 48 -12 -4 -12 1 -21 13 -26 11 -4 28 -15 39 -26 70 -66 293
-130 327 -93 10 10 16 9 32 -6 27 -25 44 -23 20 3 -18 20 -18 20 11 13 17 -4
40 -11 52 -15 17 -6 25 -3 37 15 10 16 11 27 5 33 -17 17 -18 47 -2 71 7 12
11 27 8 32 -3 6 -1 10 5 10 6 0 9 4 6 8 -8 13 72 14 95 1 15 -8 18 -14 10 -22
-16 -16 -14 -44 4 -51 8 -3 15 -1 15 4 0 6 7 10 15 10 8 0 15 9 15 19 0 23 37
38 53 22 12 -12 18 -176 7 -207 -5 -11 -9 -38 -11 -60 -3 -49 -15 -74 -35 -74
-9 0 -14 -6 -12 -12 3 -7 -2 -19 -10 -27 -9 -9 -12 -25 -8 -44 5 -26 4 -29
-15 -24 -15 4 -19 1 -18 -11 2 -9 -1 -27 -5 -40 -7 -20 -10 -21 -24 -10 -10 7
-14 9 -10 4 4 -4 3 -19 -3 -33 -5 -13 -5 -22 -1 -19 5 3 9 -2 9 -10 0 -9 -6
-13 -14 -10 -8 3 -12 2 -8 -3 8 -14 -5 -41 -21 -41 -8 0 -14 -4 -14 -8 0 -4
15 -7 33 -7 17 0 39 -3 49 -7 12 -6 15 -3 11 11 -3 12 -11 17 -19 14 -8 -3
-14 1 -14 11 0 10 5 13 17 9 13 -5 15 -2 10 12 -6 15 -5 16 8 5 9 -8 15 -9 15
-2 0 6 -8 16 -17 21 -12 7 -13 10 -4 11 7 0 11 6 8 14 -4 10 0 12 13 9 16 -4
18 -1 15 17 -2 13 -1 28 3 34 4 6 14 33 22 59 8 27 20 49 25 48 6 0 15 10 21
21 9 18 12 13 17 -32 7 -61 18 -77 49 -75 24 2 39 35 16 35 -7 0 -24 11 -36
25 -23 24 -23 26 -7 57 9 18 19 51 22 73 5 41 27 75 48 75 19 0 57 41 51 56
-3 7 -1 16 5 19 5 4 3 13 -6 21 -8 9 -13 20 -10 25 4 5 -1 9 -10 9 -12 0 -15
5 -11 16 4 12 2 15 -9 10 -9 -3 -15 0 -15 8 0 16 24 38 33 30 3 -4 17 3 31 14
14 10 22 22 19 26 -4 3 7 3 25 0 25 -5 35 -1 58 22 55 59 51 114 -7 114 -17 0
-28 -4 -25 -9 3 -5 -1 -14 -9 -21 -8 -7 -15 -19 -15 -26 0 -8 -9 -14 -22 -13
-17 1 -18 3 -6 6 10 2 15 10 11 19 -3 8 0 14 6 14 16 0 30 41 47 130 15 86 28
140 43 190 6 19 11 56 11 83 0 26 8 73 18 105 21 63 38 135 47 198 5 30 2 45
-9 57 -9 9 -16 18 -16 22 0 4 -7 13 -15 21 -8 9 -15 24 -15 33 0 10 -7 24 -15
31 -8 7 -15 19 -15 26 0 8 -6 11 -15 8 -8 -4 -15 -2 -15 4 0 5 -13 24 -28 40
-20 22 -28 40 -27 61 1 24 -2 31 -16 31 -12 0 -16 5 -13 15 4 9 0 15 -10 15
-9 0 -16 4 -16 9 0 9 -38 24 -53 22 -5 -1 -7 16 -6 38 2 22 0 43 -4 47 -4 4
-4 17 -1 30 4 15 -1 29 -16 44 -16 16 -20 29 -15 49 5 25 3 29 -37 41 -58 18
-62 21 -47 31 10 6 4 9 -18 9 -18 0 -48 9 -68 20 -19 11 -39 19 -43 19 -26 -4
-33 4 -12 13 l25 10 -29 10 c-21 8 -30 7 -36 -2 -11 -17 -35 0 -35 25 0 16 -9
21 -46 26 -26 4 -56 12 -68 18 -11 7 -21 8 -21 4 0 -4 -5 0 -11 10 -5 9 -15
17 -21 17 -6 0 -48 18 -94 40 -46 22 -88 40 -93 40 -5 0 -7 9 -4 20 3 12 -1
22 -11 26 -9 3 -14 10 -11 15 3 4 -11 11 -32 14 -61 11 -68 14 -78 36 -6 13
-28 27 -55 36 -25 8 -49 20 -55 26 -9 11 -82 35 -130 43 -11 2 -63 -6 -115
-17z m-115 -69 c3 -5 -1 -10 -10 -10 -9 0 -13 5 -10 10 3 6 8 10 10 10 2 0 7
-4 10 -10z m-245 -70 c0 -5 -5 -10 -11 -10 -5 0 -7 5 -4 10 3 6 8 10 11 10 2
0 4 -4 4 -10z m1470 -364 c0 -3 -4 -8 -10 -11 -5 -3 -10 -1 -10 4 0 6 5 11 10
11 6 0 10 -2 10 -4z m-1835 -246 c13 -6 15 -9 5 -9 -8 0 -22 4 -30 9 -18 12
-2 12 25 0z m622 -25 c0 -8 -4 -12 -9 -9 -4 3 -8 0 -8 -6 0 -7 6 -10 13 -7 83
31 85 31 111 14 31 -21 55 -22 62 -3 3 8 13 13 22 11 9 -2 25 -4 35 -4 10 -1
15 -5 12 -11 -8 -14 -1 -13 41 5 28 12 36 12 40 1 3 -8 15 -11 32 -8 24 5 26
4 13 -12 -12 -14 -12 -16 3 -10 9 3 22 1 30 -5 10 -9 15 -8 20 4 3 9 10 13 16
10 5 -3 10 1 10 9 0 9 6 16 14 16 20 0 29 -17 14 -23 -7 -2 -10 -7 -7 -11 3
-4 18 -2 33 4 15 5 25 6 21 1 -3 -5 -1 -12 5 -16 5 -3 10 -2 10 4 0 6 7 8 15
4 9 -3 14 -8 11 -10 -11 -12 28 -36 55 -35 18 0 39 -8 50 -19 15 -15 24 -17
33 -10 8 7 21 6 42 -5 18 -9 24 -10 17 -3 -26 26 -12 31 20 7 17 -13 41 -28
51 -31 16 -6 17 -5 6 8 -7 8 -16 12 -21 9 -5 -3 -9 -1 -9 5 0 14 41 10 65 -6
14 -9 15 -13 5 -14 -22 -1 42 -28 68 -29 12 0 25 -7 28 -15 4 -10 11 -12 18
-7 18 14 48 23 41 12 -3 -6 0 -10 8 -10 44 0 97 -137 93 -237 -2 -29 0 -50 5
-48 13 9 17 -79 3 -95 -19 -23 -20 -26 -7 -41 6 -8 11 -35 11 -61 0 -25 6 -56
12 -68 6 -12 9 -27 7 -35 -3 -7 -2 -16 3 -21 10 -10 20 -58 25 -129 2 -27 7
-71 11 -97 6 -46 6 -47 -38 -77 -23 -17 -48 -35 -55 -41 -7 -6 -38 -8 -70 -6
-32 3 -62 5 -68 5 -5 1 1 8 13 17 17 11 20 19 13 28 -6 7 -8 15 -6 18 7 7 -74
28 -112 29 -18 1 -22 3 -10 6 10 3 48 0 84 -7 36 -6 67 -9 70 -7 2 3 -6 15
-19 26 l-23 22 23 6 c12 3 22 10 22 17 0 12 20 -14 20 -28 0 -4 -12 -5 -27 -1
l-28 7 27 -21 c27 -22 43 -27 34 -12 -4 5 0 11 6 14 10 3 9 8 -2 22 -13 15
-13 19 -1 23 10 3 7 9 -10 18 -13 7 -18 13 -11 14 7 0 10 5 7 11 -4 6 -13 8
-21 5 -8 -3 -11 0 -7 10 3 7 0 14 -6 14 -6 0 -11 6 -11 14 0 8 -5 18 -12 22
-7 4 -8 3 -4 -4 12 -20 -12 -13 -26 7 -20 28 -71 50 -116 49 -23 0 -48 4 -55
10 -13 11 -111 11 -122 0 -7 -7 -103 0 -118 9 -4 2 -23 -1 -42 -8 -26 -10 -40
-10 -59 -1 -22 10 -27 8 -41 -11 -14 -20 -15 -21 -16 -2 0 11 -6 2 -14 -20 -8
-26 -13 -33 -14 -19 -1 12 -8 24 -16 28 -18 7 -20 -14 -2 -34 6 -8 3 -7 -9 3
-25 21 -41 22 -60 2 -8 -8 -22 -11 -32 -8 -9 3 -14 2 -9 -2 4 -5 0 -16 -9 -26
-10 -11 -14 -27 -11 -40 8 -31 -2 -49 -28 -49 -13 0 -25 -3 -28 -7 -2 -5 -2
-3 -1 4 2 7 -2 26 -8 43 -8 24 -15 29 -29 25 -14 -5 -21 0 -29 19 -13 35 -65
79 -103 89 -18 4 -41 9 -52 12 -11 3 -21 9 -23 15 -2 5 -21 10 -41 10 -21 0
-40 3 -43 6 -4 3 -37 7 -75 10 -37 2 -69 8 -70 12 -2 4 -20 7 -40 6 -20 -1
-51 2 -70 6 -25 6 -38 3 -55 -12 -12 -10 -39 -29 -60 -40 -21 -12 -38 -28 -38
-35 0 -8 -5 -11 -11 -8 -16 10 4 125 22 125 5 0 4 11 -1 25 -7 18 -6 25 3 25
8 0 8 3 -2 9 -7 5 -11 15 -9 22 3 8 1 22 -4 32 -5 9 -5 23 -1 30 10 17 12 77
1 71 -4 -3 -8 -1 -8 5 0 5 5 11 11 13 6 2 11 20 11 41 0 21 5 37 12 37 7 0 6
3 -2 9 -11 7 -11 10 0 22 17 18 23 54 8 44 -9 -5 -9 -1 0 16 7 12 15 39 17 58
5 33 36 86 51 86 4 0 13 4 20 9 7 4 20 5 28 2 8 -3 12 -2 9 3 -3 5 -1 12 5 16
5 3 10 1 10 -5 0 -6 13 -1 29 11 16 12 34 18 41 14 6 -4 19 1 28 12 17 18 108
66 150 78 13 4 20 11 16 18 -4 7 -4 9 1 5 4 -4 14 -3 21 3 8 7 14 7 19 -1 4
-7 12 -7 26 1 15 7 24 7 34 -1 10 -8 17 -7 27 4 17 19 25 20 25 1z m638 -64
c6 -2 1 -6 -10 -10 -21 -9 -45 -4 -45 9 0 6 24 7 55 1z m-1340 -31 c3 -5 1
-10 -4 -10 -6 0 -11 5 -11 10 0 6 2 10 4 10 3 0 8 -4 11 -10z m-118 -122 c-3
-8 -6 -5 -6 6 -1 11 2 17 5 13 3 -3 4 -12 1 -19z m308 -731 l120 1 -98 -7
c-97 -7 -116 -15 -117 -48 0 -7 -4 -13 -10 -13 -12 0 -34 40 -26 47 3 4 0 13
-7 21 -10 13 -9 14 3 7 8 -6 69 -9 135 -8z m252 -13 c-3 -3 -12 -4 -19 -1 -8
3 -5 6 6 6 11 1 17 -2 13 -5z m-452 -60 c21 8 19 1 -9 -27 -29 -29 -36 -20
-36 46 l1 42 14 -34 c10 -23 20 -31 30 -27z m462 40 c-3 -3 -12 -4 -19 -1 -8
3 -5 6 6 6 11 1 17 -2 13 -5z m458 -33 c3 -5 20 -13 38 -17 17 -4 26 -9 20
-11 -7 -3 -13 -11 -13 -18 0 -13 -21 -25 -43 -25 -7 0 -6 4 3 10 12 8 9 10
-12 10 -16 0 -29 5 -29 10 -1 6 -2 16 -3 23 -3 21 28 35 39 18z m-799 -10 c-3
-5 3 -11 14 -14 26 -7 26 -22 0 -24 -11 -1 -20 2 -20 7 0 5 -11 7 -25 4 -14
-2 -33 0 -42 5 -14 7 -8 11 28 19 24 5 45 10 47 11 2 1 1 -3 -2 -8z m651 -13
c-3 -8 -6 -5 -6 6 -1 11 2 17 5 13 3 -3 4 -12 1 -19z m95 -3 c4 -5 2 -13 -5
-17 -20 -13 -27 -9 -27 12 0 20 19 23 32 5z m411 8 c-7 -2 -19 -2 -25 0 -7 3
-2 5 12 5 14 0 19 -2 13 -5z m-260 -18 c-3 -9 -8 -14 -10 -11 -3 3 -2 9 2 15
9 16 15 13 8 -4z m424 0 c0 -17 -13 -18 -42 -4 -19 9 -18 9 2 5 13 -2 26 0 29
5 8 13 11 11 11 -6z m-1077 -5 c-10 -6 -11 -10 -2 -10 6 0 12 -7 12 -15 0 -9
7 -27 16 -40 19 -29 7 -32 -36 -10 -53 28 -58 60 -10 78 25 9 36 7 20 -3z
m368 -15 c1 -1 -6 -5 -17 -8 -11 -3 -26 2 -32 10 -11 12 -8 13 17 7 16 -4 30
-8 32 -9z m-119 -59 c-2 -2 -29 -6 -59 -10 l-55 -7 21 23 c12 13 24 32 28 43
6 18 9 17 38 -13 16 -18 29 -35 27 -36z m908 38 c-3 -3 -12 -4 -19 -1 -8 3 -5
6 6 6 11 1 17 -2 13 -5z m451 -34 c1 -26 -3 -30 -35 -36 -20 -4 -52 -18 -72
-31 -33 -22 -36 -23 -42 -6 -12 28 -10 43 4 43 6 0 39 13 72 29 33 16 63 30
66 30 3 1 6 -12 7 -29z m-868 12 c0 -5 -13 -7 -30 -4 -16 2 -30 6 -30 8 0 2
14 4 30 4 17 0 30 -4 30 -8z m190 -37 c6 -19 23 -44 38 -56 l27 -21 -35 7
c-76 15 -100 26 -100 47 0 24 27 58 46 58 7 0 18 -16 24 -35z m-283 -7 c-3 -7
-5 -2 -5 12 0 14 2 19 5 13 2 -7 2 -19 0 -25z m1113 17 c0 -8 -7 -15 -15 -15
-16 0 -20 12 -8 23 11 12 23 8 23 -8z m-1033 -9 c-3 -8 -1 -17 6 -19 8 -3 5
-7 -6 -12 -25 -10 -31 -1 -15 24 15 24 23 28 15 7z m-470 -13 c-9 -3 -15 -8
-12 -13 3 -5 0 -12 -6 -16 -7 -4 -9 -3 -5 4 4 7 -5 11 -26 11 -103 1 -158 6
-158 14 0 5 9 7 19 4 10 -2 23 -2 29 2 5 3 48 4 93 2 46 -2 76 -6 66 -8z
m1038 7 c-3 -5 -11 -10 -16 -10 -6 0 -7 5 -4 10 3 6 11 10 16 10 6 0 7 -4 4
-10z m-468 -14 c-5 -16 -27 -19 -27 -3 0 7 7 14 15 14 9 0 14 -5 12 -11z m293
-27 c-19 -15 -44 -29 -54 -29 -18 0 -18 1 -1 20 10 11 26 20 37 20 10 0 18 5
18 11 0 5 5 7 10 4 6 -3 10 -1 10 6 0 7 3 9 7 5 5 -4 -8 -21 -27 -37z m-170
-39 c12 -8 12 -10 -5 -9 -11 0 -29 4 -40 9 -18 8 -18 9 5 9 14 0 32 -4 40 -9z
m90 0 c11 -7 4 -10 -25 -10 -29 0 -36 3 -25 10 8 5 20 10 25 10 6 0 17 -5 25
-10z m25 -90 c-3 -5 -14 -10 -23 -9 -14 0 -13 2 3 9 27 11 27 11 20 0z m-890
-468 c-1 -26 -5 -47 -10 -47 -6 0 -15 -3 -21 -7 -6 -4 -21 -6 -33 -3 -19 3
-26 -5 -22 -28 1 -5 -4 -7 -11 -4 -7 2 -12 9 -11 15 3 14 -42 9 -62 -8 -13
-11 -15 -10 -9 4 3 9 10 16 14 16 4 0 18 11 31 25 13 13 29 25 35 25 16 0 45
35 37 45 -5 4 -3 5 3 2 7 -4 17 0 24 8 20 25 35 7 35 -43z m35 -122 c0 -5 -7
-10 -16 -10 -8 0 -12 5 -9 10 3 6 10 10 16 10 5 0 9 -4 9 -10z m427 -72 c-3
-8 -6 -5 -6 6 -1 11 2 17 5 13 3 -3 4 -12 1 -19z m-801 -13 c-8 -8 -17 -15
-20 -15 -3 0 -3 7 0 15 4 8 13 15 21 15 12 0 12 -2 -1 -15z m740 -1 c19 4 24
3 15 -2 -10 -8 -8 -13 10 -26 13 -9 31 -16 41 -16 10 0 18 -4 18 -9 0 -5 8
-12 18 -15 9 -3 -1 -2 -23 1 -22 4 -80 8 -130 8 -59 2 -103 8 -127 19 -21 9
-41 16 -45 15 -5 -1 -34 -1 -65 0 -44 1 -58 5 -58 16 0 8 7 15 15 15 8 0 15
-5 15 -11 0 -8 4 -8 13 -1 10 8 68 10 140 4 9 -1 17 -9 17 -17 0 -22 70 -13
89 12 10 12 19 16 22 10 4 -5 19 -7 35 -3z m271 10 c-3 -3 -12 -4 -19 -1 -8 3
-5 6 6 6 11 1 17 -2 13 -5z m220 -40 c-3 -3 -12 -4 -19 -1 -8 3 -5 6 6 6 11 1
17 -2 13 -5z m-340 -50 c-3 -3 -12 -4 -19 -1 -8 3 -5 6 6 6 11 1 17 -2 13 -5z
m410 -9 c0 -8 -4 -12 -9 -9 -4 3 -8 9 -8 15 0 5 4 9 8 9 5 0 9 -7 9 -15z
m-742 -57 c28 -6 93 -13 145 -17 l95 -6 -31 -30 c-26 -26 -37 -30 -80 -28 -27
1 -66 2 -86 2 -20 1 -43 7 -50 14 -7 8 -19 12 -25 10 -19 -7 -64 43 -57 62 4
10 13 14 23 10 9 -4 39 -11 66 -17z m458 -96 c-3 -7 -12 -11 -20 -8 -8 3 -11
1 -8 -4 9 -15 -21 -23 -42 -11 -11 6 -13 11 -5 11 7 0 11 4 7 9 -3 5 2 16 10
24 12 12 20 13 39 4 13 -6 21 -17 19 -25z m-63 -36 c0 -2 -6 -9 -14 -15 -11
-9 -16 -9 -22 0 -4 7 -3 9 4 5 6 -3 13 -2 17 4 6 10 15 14 15 6z m-670 -76
c-9 -6 -11 -10 -3 -10 7 0 10 -7 7 -15 -12 -30 -25 -1 -15 33 1 1 7 2 14 2 8
0 7 -4 -3 -10z m358 -24 c58 2 89 -1 94 -9 6 -9 8 -9 8 1 0 6 7 12 15 12 8 0
15 -4 15 -10 0 -14 27 -12 33 3 3 9 8 9 18 -2 9 -9 9 -11 2 -7 -25 14 -12 -9
17 -33 17 -13 30 -28 30 -35 0 -6 -5 -4 -10 4 -7 11 -10 11 -10 2 0 -7 -4 -11
-9 -8 -5 3 -12 -1 -15 -10 -4 -9 -11 -12 -18 -7 -7 4 -27 8 -45 9 -25 1 -30
-2 -26 -15 4 -9 3 -13 -2 -9 -4 4 -14 0 -23 -9 -14 -14 -16 -13 -24 6 -8 23
-23 27 -34 9 -5 -8 -2 -9 9 -5 10 3 17 2 17 -3 0 -5 -17 -7 -37 -5 -21 2 -37
8 -35 14 4 20 -15 11 -27 -11 -6 -13 -10 -16 -7 -7 2 9 -7 20 -25 28 -16 7
-27 17 -23 22 5 9 -22 14 -59 11 -11 -1 -15 2 -11 9 14 24 -19 26 -42 2 -25
-24 -32 -39 -14 -28 6 3 10 -1 10 -10 0 -12 -4 -14 -19 -5 -11 5 -23 15 -27
22 -5 7 -3 8 6 3 9 -6 11 -4 5 4 -4 7 -18 11 -31 8 -16 -3 -24 0 -24 9 0 8 -4
14 -10 14 -5 0 -10 9 -10 20 0 29 27 24 44 -7 8 -16 15 -22 16 -14 0 11 5 9
22 -5 12 -10 18 -13 13 -5 -5 9 -4 12 3 7 6 -3 13 -2 17 4 3 5 1 10 -5 10 -7
0 -7 4 2 13 9 11 19 11 46 2 42 -15 82 -8 83 14 0 9 3 11 5 5 3 -7 37 -10 92
-8z m297 -25 c-3 -6 -11 -9 -16 -6 -5 4 -9 1 -9 -6 0 -7 -3 -9 -7 -5 -5 4 1
14 11 22 21 15 32 12 21 -5z m20 -41 c4 -6 11 -8 16 -5 5 4 9 1 9 -5 0 -7 -9
-14 -20 -17 -11 -3 -17 -9 -14 -14 3 -5 10 -7 15 -4 5 4 9 -1 9 -9 0 -17 -9
-20 -34 -10 -9 3 -14 10 -11 14 3 5 -3 11 -14 15 -31 10 -23 45 11 45 15 0 30
-5 33 -10z m-95 -40 c0 -5 -4 -10 -10 -10 -5 0 -10 5 -10 10 0 6 5 10 10 10 6
0 10 -4 10 -10z m1258 -391 c-3 -8 -7 -3 -11 10 -4 17 -3 21 5 13 5 -5 8 -16
6 -23z m-1025 -195 c-6 -16 -23 -19 -23 -4 0 6 6 10 13 11 10 0 10 2 0 6 -7 2
-13 9 -13 15 0 7 5 6 14 -2 8 -6 12 -18 9 -26z m-245 -4 c-14 -4 -32 -11 -40
-15 -7 -3 -4 1 6 9 11 9 29 16 40 15 17 -1 16 -2 -6 -9z m-118 -20 c0 -5 -2
-10 -4 -10 -3 0 -8 5 -11 10 -3 6 -1 10 4 10 6 0 11 -4 11 -10z m-50 -20 c0
-5 8 -10 18 -11 14 0 14 -2 -3 -9 -28 -12 -37 -12 -30 0 3 6 -1 10 -9 10 -9 0
-16 5 -16 10 0 6 9 10 20 10 11 0 20 -4 20 -10z m-310 -55 c0 -8 7 -15 15 -15
8 0 15 -4 15 -10 0 -5 7 -10 15 -10 25 0 17 -15 -9 -18 -13 -1 -27 5 -30 13
-3 8 -10 15 -16 15 -7 0 -8 -6 -1 -19 6 -10 7 -21 3 -25 -3 -4 1 -4 10 -1 9 4
19 0 24 -7 4 -7 4 -10 -1 -6 -10 10 -38 -19 -30 -32 11 -18 14 -51 4 -45 -5 4
-7 11 -4 16 4 5 2 9 -3 9 -5 0 -9 6 -9 13 -3 58 -9 87 -18 87 -5 0 -4 4 3 9 8
4 13 11 13 15 -3 18 0 26 9 26 6 0 10 -7 10 -15z m100 -61 c0 -8 -19 -13 -24
-6 -3 5 1 9 9 9 8 0 15 -2 15 -3z m-53 -112 c1 -17 -2 -21 -10 -13 -15 15 -17
38 -3 38 6 0 12 -11 13 -25z m38 -10 c-3 -3 -11 0 -18 7 -9 10 -8 11 6 5 10
-3 15 -9 12 -12z m-748 -48 c-3 -3 -12 -4 -19 -1 -8 3 -5 6 6 6 11 1 17 -2 13
-5z m3198 -484 c3 -5 2 -10 -4 -10 -5 0 -13 5 -16 10 -3 6 -2 10 4 10 5 0 13
-4 16 -10z m-3945 -60 c0 -5 -7 -10 -15 -10 -8 0 -15 5 -15 10 0 6 7 10 15 10
8 0 15 -4 15 -10z"/>
<path d="M2099 3953 c-13 -16 -12 -17 4 -4 16 13 21 21 13 21 -2 0 -10 -8 -17
-17z"/>
<path d="M1723 3678 c-29 -33 -36 -58 -16 -58 14 0 14 -2 -3 -15 -19 -16 -19
-16 1 -13 15 3 19 10 17 32 -3 25 0 28 18 23 16 -4 23 0 29 16 16 42 -13 51
-46 15z"/>
<path d="M1666 3571 c-4 -5 -3 -16 0 -25 5 -13 9 -14 20 -5 8 6 14 18 14 25 0
16 -26 19 -34 5z"/>
<path d="M1590 3390 c0 -5 5 -10 11 -10 5 0 7 5 4 10 -3 6 -8 10 -11 10 -2 0
-4 -4 -4 -10z"/>
<path d="M1603 3356 c0 -8 6 -12 14 -9 7 3 10 9 7 14 -8 14 -21 11 -21 -5z"/>
<path d="M2365 2950 c3 -5 11 -10 16 -10 6 0 7 5 4 10 -3 6 -11 10 -16 10 -6
0 -7 -4 -4 -10z"/>
<path d="M2396 2931 c-3 -5 1 -11 9 -15 8 -3 15 -1 15 4 0 13 -18 22 -24 11z"/>
<path d="M2165 1550 c-3 -5 1 -10 9 -10 8 0 18 5 21 10 3 6 -1 10 -9 10 -8 0
-18 -4 -21 -10z"/>
<path d="M2080 4750 c-24 -8 -24 -8 5 -9 17 0 37 4 45 9 12 8 11 10 -5 9 -11
-1 -31 -5 -45 -9z"/>
<path d="M2178 4753 c6 -2 18 -2 25 0 6 3 1 5 -13 5 -14 0 -19 -2 -12 -5z"/>
<path d="M3115 4500 c-3 -5 -1 -10 4 -10 6 0 11 5 11 10 0 6 -2 10 -4 10 -3 0
-8 -4 -11 -10z"/>
<path d="M3493 4023 c0 -17 22 -16 36 1 10 11 7 14 -12 12 -13 0 -24 -7 -24
-13z"/>
<path d="M3520 2720 c0 -5 5 -10 11 -10 5 0 7 5 4 10 -3 6 -8 10 -11 10 -2 0
-4 -4 -4 -10z"/>
<path d="M3231 2688 c-5 -19 -10 -25 -10 -14 -1 27 -11 14 -20 -27 -8 -31 -7
-33 15 -29 13 2 23 7 22 11 -2 20 3 41 10 37 4 -2 9 6 10 19 3 37 -16 39 -27
3z"/>
<path d="M2025 2681 c-3 -5 -14 -7 -25 -4 -12 3 -20 0 -20 -7 0 -8 -11 -11
-30 -8 -16 3 -30 1 -30 -4 0 -14 -40 -9 -46 7 -4 8 -10 15 -16 15 -5 0 -6 -5
-2 -12 5 -8 2 -9 -9 -5 -25 10 -29 -8 -6 -29 12 -11 22 -17 23 -15 0 2 18 1
38 -3 29 -5 47 -1 85 18 73 38 78 42 59 49 -8 3 -18 2 -21 -2z"/>
<path d="M2641 2633 c6 -7 8 -13 4 -13 -3 0 7 -14 24 -30 24 -25 41 -32 83
-35 29 -2 44 -2 33 1 -44 11 -95 40 -91 51 6 14 -18 36 -27 26 -4 -3 -7 -2 -7
4 0 5 -7 10 -15 10 -11 0 -12 -4 -4 -14z"/>
<path d="M3000 2601 c0 -7 -4 -9 -10 -6 -5 3 -10 2 -10 -4 0 -5 5 -13 10 -16
11 -7 26 22 16 32 -3 4 -6 1 -6 -6z"/>
<path d="M2940 2589 c0 -6 -4 -8 -9 -4 -6 3 -14 -2 -19 -12 -8 -13 -21 -16
-54 -15 -31 2 -39 0 -28 -8 29 -19 93 -11 118 14 18 20 19 25 7 30 -8 3 -15 1
-15 -5z"/>
<path d="M1409 2568 c-10 -35 -7 -48 11 -48 15 0 20 7 20 25 0 16 -6 25 -15
25 -8 0 -15 -1 -16 -2z"/>
<path d="M2745 2528 c30 -22 95 -28 140 -13 39 12 39 13 10 14 -16 1 -61 4
-100 7 -63 6 -68 5 -50 -8z"/>
<path d="M1461 2493 c-1 -7 -8 -13 -17 -13 -9 0 -23 -8 -30 -17 -16 -21 -18
-73 -3 -73 5 0 7 5 3 12 -4 7 -3 8 4 4 7 -4 24 4 38 17 23 22 25 28 16 53 -6
16 -11 23 -11 17z"/>
<path d="M3511 2483 c-7 -8 -11 -16 -8 -19 7 -7 35 6 40 20 7 17 -16 16 -32
-1z"/>
<path d="M3450 2439 c-6 -11 -10 -27 -8 -36 3 -15 5 -15 21 1 18 19 23 56 7
56 -5 0 -14 -9 -20 -21z"/>
<path d="M1471 2378 c3 -29 -2 -49 -11 -43 -5 3 -10 4 -10 1 0 -2 -3 -11 -6
-20 -8 -20 28 -22 45 -2 12 15 4 76 -11 76 -5 0 -8 -6 -7 -12z"/>
<path d="M1400 2300 c0 -5 7 -10 16 -10 8 0 12 5 9 10 -3 6 -10 10 -16 10 -5
0 -9 -4 -9 -10z"/>
<path d="M3365 2240 c-4 -14 3 -28 27 -49 18 -17 36 -31 40 -31 12 0 -3 28
-18 34 -8 3 -14 19 -14 36 0 34 -25 42 -35 10z"/>
<path d="M3191 2188 c-1 -13 -9 -18 -28 -18 -31 0 -26 -9 10 -16 30 -5 38 3
26 31 -6 17 -8 17 -8 3z"/>
<path d="M3228 2109 c-9 -5 -31 -7 -48 -4 -17 3 -30 1 -30 -5 0 -5 6 -10 13
-10 6 0 3 -7 -8 -16 -19 -14 -31 -79 -12 -67 5 3 6 16 3 29 -7 27 18 35 27 10
3 -8 16 -20 29 -27 13 -6 20 -8 16 -4 -4 5 -3 14 3 22 6 7 8 13 5 13 -4 0 2
13 14 29 22 31 16 46 -12 30z m-7 -37 c-7 -2 -18 1 -23 6 -8 8 -4 9 13 5 13
-4 18 -8 10 -11z m-11 -33 c0 -6 -4 -7 -10 -4 -5 3 -10 11 -10 16 0 6 5 7 10
4 6 -3 10 -11 10 -16z"/>
<path d="M3240 2040 c0 -5 5 -10 11 -10 5 0 7 5 4 10 -3 6 -8 10 -11 10 -2 0
-4 -4 -4 -10z"/>
<path d="M3163 2020 c4 -25 21 -37 31 -22 3 5 -3 17 -14 27 -20 18 -20 18 -17
-5z"/>
<path d="M3209 1998 c-6 -13 -6 -58 -1 -58 4 0 9 14 10 30 2 24 -3 40 -9 28z"/>
<path d="M3175 1961 c2 -12 -1 -21 -7 -21 -7 0 -6 -5 2 -14 6 -8 18 -12 26 -9
11 4 12 9 4 18 -6 7 -9 18 -8 25 2 7 -2 14 -9 17 -8 3 -11 -3 -8 -16z"/>
<path d="M3069 1932 c7 -13 10 -30 7 -37 -3 -9 0 -12 8 -9 17 6 10 38 -12 56
-14 12 -14 10 -3 -10z"/>
<path d="M3121 1892 c-6 -11 -6 -25 0 -37 10 -20 10 -20 -5 -1 -23 28 -32 12
-11 -20 12 -19 20 -23 28 -15 14 14 28 14 25 0 -2 -6 3 -14 11 -17 9 -3 11 0
6 8 -5 8 -1 18 9 25 15 11 15 13 1 19 -9 3 -13 10 -10 16 4 6 -5 10 -20 10
-15 0 -24 4 -20 10 3 6 18 7 33 4 21 -4 24 -3 12 5 -23 16 -48 13 -59 -7z"/>
<path d="M3259 1372 c-28 -9 -99 -74 -99 -90 1 -30 123 -202 143 -202 5 0 31
18 59 39 27 22 52 41 56 43 19 8 103 123 100 137 -7 34 -54 24 -107 -23 -71
-63 -82 -58 -15 6 31 29 51 54 46 56 -13 4 -124 -46 -179 -81 -49 -31 -53 -32
-53 -12 0 8 5 15 10 15 6 0 10 7 10 16 0 8 14 20 30 25 28 10 41 29 20 29 -23
0 -7 20 23 28 l32 9 -31 4 c-17 3 -37 3 -45 1z"/>
<path d="M3567 1231 c-3 -12 -1 -21 3 -21 15 0 23 21 12 32 -6 6 -11 2 -15
-11z"/>
<path d="M3388 1113 c6 -2 18 -2 25 0 6 3 1 5 -13 5 -14 0 -19 -2 -12 -5z"/>
<path d="M1789 1082 c-8 -9 -16 -37 -17 -62 -2 -24 -8 -50 -13 -57 -6 -6 -9
-22 -7 -35 2 -17 10 -6 28 42 14 36 25 67 26 70 0 3 4 13 9 23 11 26 -8 40
-26 19z"/>
<path d="M3315 1064 c-22 -20 -32 -33 -22 -30 10 3 21 6 23 6 3 0 2 5 -1 10
-3 6 3 10 14 10 11 0 25 9 31 20 16 30 0 24 -45 -16z"/>
<path d="M1667 949 c7 -7 15 -10 18 -7 3 3 -2 9 -12 12 -14 6 -15 5 -6 -5z"/>
<path d="M1410 940 c0 -5 7 -10 16 -10 8 0 12 5 9 10 -3 6 -10 10 -16 10 -5 0
-9 -4 -9 -10z"/>
<path d="M1710 900 c-13 -8 -12 -10 3 -10 9 0 17 5 17 10 0 12 -1 12 -20 0z"/>
<path d="M1616 891 c-4 -5 -2 -12 3 -15 5 -4 12 -2 15 3 4 5 2 12 -3 15 -5 4
-12 2 -15 -3z"/>
<path d="M2690 859 c0 -5 5 -7 10 -4 6 3 10 8 10 11 0 2 -4 4 -10 4 -5 0 -10
-5 -10 -11z"/>
<path d="M2690 799 c0 -5 5 -7 10 -4 6 3 10 8 10 11 0 2 -4 4 -10 4 -5 0 -10
-5 -10 -11z"/>
<path d="M3538 783 c7 -3 16 -2 19 1 4 3 -2 6 -13 5 -11 0 -14 -3 -6 -6z"/>
<path d="M1011 453 c7 -12 15 -20 18 -17 3 2 -3 12 -13 22 -17 16 -18 16 -5
-5z"/>
<path d="M330 8 c0 -11 28 -10 35 1 3 6 -4 9 -15 8 -11 -1 -20 -5 -20 -9z"/>
</g>
</svg>
